<svg xmlns="http://www.w3.org/2000/svg" xmlns:xlink="http://www.w3.org/1999/xlink" version="1.1" viewBox="5 3 14.4 18">
    <title>Icon/User</title>
    <defs>
        <path d="M12.2003469,13.8 C16.1279469,13.8 19.0151469,16.6422 19.1366469,16.7637 C19.3778469,17.0049 19.4615469,17.3613 19.3535469,17.6844 L19.3535469,17.6844 L18.4535469,20.3844 C18.3311469,20.7525 17.9873469,21 17.6003469,21 L17.6003469,21 L6.80034693,21 C6.41244693,21 6.06864693,20.7525 5.94624693,20.3844 L5.94624693,20.3844 L5.04624693,17.6844 C4.93824693,17.3613 5.02284693,17.0049 5.26404693,16.7637 C5.38464693,16.6422 8.27184693,13.8 12.2003469,13.8 Z M12.2003469,15.6 C9.76764693,15.6 7.76604693,17.0022 6.94164693,17.679 L6.94164693,17.679 L7.44834693,19.2 L16.9514469,19.2 L17.4572469,17.6817 C16.6292469,17.0049 14.6177469,15.6 12.2003469,15.6 Z M12.2000769,4.8 C13.6886769,4.8 14.9000769,6.0114 14.9000769,7.5 C14.9000769,8.9886 13.6886769,10.2 12.2000769,10.2 C10.7114769,10.2 9.50007693,8.9886 9.50007693,7.5 C9.50007693,6.0114 10.7114769,4.8 12.2000769,4.8 Z M12.2000769,12 C14.6813769,12 16.7000769,9.9813 16.7000769,7.5 C16.7000769,5.0187 14.6813769,3 12.2000769,3 C9.71877693,3 7.70007693,5.0187 7.70007693,7.5 C7.70007693,9.9813 9.71877693,12 12.2000769,12" id="path-1"/>
    </defs>
    <g id="Icon/User" stroke="none" stroke-width="1" fill="none" fill-rule="evenodd">
        <mask id="mask-2" fill="white">
            <use xlink:href="#path-1"/>
        </mask>
        <use id="Icon" fill="#fff" fill-rule="nonzero" xlink:href="#path-1"/>
    </g>
</svg>