<svg xmlns="http://www.w3.org/2000/svg" width="11.143" height="11.143" viewBox="0 0 11.143 11.143">
  <path id="Path_3" data-name="Path 3" d="M7.714-4.714a3,3,0,0,1-3,3,3,3,0,0,1-3-3,3,3,0,0,1,3-3A3,3,0,0,1,7.714-4.714ZM11.143.857a.862.862,0,0,0-.248-.6l-2.3-2.3a4.7,4.7,0,0,0,.83-2.672A4.713,4.713,0,0,0,4.714-9.429,4.713,4.713,0,0,0,0-4.714,4.713,4.713,0,0,0,4.714,0,4.7,4.7,0,0,0,7.386-.83l2.3,2.29a.84.84,0,0,0,.6.254A.863.863,0,0,0,11.143.857Z" transform="translate(0 9.429)" fill="#636363"/>
</svg>
