<?xml version="1.0" encoding="UTF-8"?>
<svg width="154px" height="40px" viewBox="0 0 154 40" version="1.1" xmlns="http://www.w3.org/2000/svg" xmlns:xlink="http://www.w3.org/1999/xlink">
    <title>154x40 desktop pgs logo nav</title>
    <defs>
        <polygon id="path-1" points="0.1216657 0.112412011 10.5308256 0.112412011 10.5308256 39.5365439 0.1216657 39.5365439"></polygon>
    </defs>
    <g id="154x40-desktop-pgs-logo-nav" stroke="none" stroke-width="1" fill="none" fill-rule="evenodd">
        <g id="Group-42" transform="translate(2.000000, 0.000000)">
            <path d="M14.3965806,14.4837961 C14.3965806,16.7873875 14.9372696,18.2216024 16.2537297,18.2216024 C17.5701897,18.2216024 18.1108787,16.7873875 18.1108787,14.4837961 C18.1108787,12.179991 17.5701897,10.722268 16.2537297,10.722268 C14.9372696,10.722268 14.3965806,12.179991 14.3965806,14.4837961 L14.3965806,14.4837961 Z M14.2085149,10.6049406 L14.2555314,10.6049406 C14.9372696,9.17093947 16.1596968,8.53621765 17.6642226,8.53621765 C21.2139631,8.53621765 22.2718328,11.521761 22.2718328,14.3897633 C22.2718328,17.2575518 21.2139631,20.2433089 17.6642226,20.2433089 C16.2537297,20.2433089 14.9372696,19.7026199 14.4435971,18.6682584 L14.3965806,18.7152749 L14.3965806,21.9829168 C14.3965806,22.6411468 14.5611382,22.9937701 15.2428764,22.9937701 L16.2067132,22.9937701 L16.2067132,24.8744273 L8.75460897,24.8744273 L8.75460897,22.9937701 L9.64792116,22.9937701 C10.3296594,22.9937701 10.4942169,22.6411468 10.4942169,21.9829168 L10.4942169,11.7803514 C10.4942169,11.1221213 10.3296594,10.7692844 9.64792116,10.7692844 L8.73110076,10.7692844 L8.73110076,8.88862717 L14.2085149,8.88862717 L14.2085149,10.6049406 Z" id="Fill-1" fill="#FFFFFF"></path>
            <path d="M26.0564631,14.3896778 C26.0564631,17.1634335 26.5501356,18.3627799 27.9606285,18.3627799 C29.3711215,18.3627799 29.864794,17.1634335 29.864794,14.3896778 C29.864794,11.6159221 29.3711215,10.4167894 27.9606285,10.4167894 C26.5501356,10.4167894 26.0564631,11.6159221 26.0564631,14.3896778 M34.0259618,14.3896778 C34.0259618,18.1512059 31.4633526,20.2434371 27.9606285,20.2434371 C24.4579045,20.2434371 21.895509,18.1512059 21.895509,14.3896778 C21.895509,10.6281496 24.4579045,8.53613217 27.9606285,8.53613217 C31.4633526,8.53613217 34.0259618,10.6281496 34.0259618,14.3896778" id="Fill-3" fill="#FFFFFF"></path>
            <path d="M35.5068084,15.9413696 C35.6948741,17.3281406 37.3874656,18.3627158 38.7039257,18.3627158 C39.3856639,18.3627158 40.702124,18.3627158 40.702124,17.3281406 C40.702124,15.3536642 33.4145772,16.5523695 33.4145772,12.2503661 C33.4145772,9.42938024 36.3295959,8.53628177 38.6804175,8.53628177 C39.9263529,8.53628177 41.2428129,8.9121995 42.3241908,9.5234131 L42.6062894,8.81838035 L44.2283563,8.81838035 L44.2283563,12.3446126 L42.4417319,12.3446126 C42.2066497,11.6626607 41.7835019,11.2160046 41.2428129,10.8871033 C40.702124,10.5577746 40.0674022,10.4167253 39.3856639,10.4167253 C38.844975,10.4167253 37.5755313,10.5342664 37.5755313,11.3335457 C37.5755313,13.3552522 44.8630781,11.8274319 44.8630781,16.4113202 C44.8630781,19.2560279 42.2536662,20.243373 39.83232,20.243373 C38.3748107,20.243373 36.9173013,20.031799 35.6948741,19.1855033 L35.3422509,19.9847826 L33.5791347,19.9847826 L33.5791347,15.9413696 L35.5068084,15.9413696 Z" id="Fill-5" fill="#FFFFFF"></path>
            <path d="M49.2591357,4.51618461 L49.2591357,8.88871266 L52.1506462,8.88871266 L52.1506462,10.7693699 L49.2591357,10.7693699 L49.2591357,17.2341291 C49.2591357,17.7278016 49.5179398,18.1120541 50.058415,18.1274413 C50.7264758,18.1464616 51.127184,17.7861447 51.4834403,17.2518671 L53.2375806,16.388047 L53.0674666,14.5777008 L53.0674666,16.6699319 C53.0674666,18.973737 51.9390722,20.2433944 49.1180864,20.2433944 C46.6967402,20.2433944 45.356772,19.0677699 45.356772,16.6699319 L45.356772,10.7693699 L43.7817215,10.7693699 L43.7817215,8.82844614 C46.1325431,8.82844614 46.7437567,6.46736648 46.9318224,4.51618461 L49.2591357,4.51618461 Z" id="Fill-7" fill="#FFFFFF"></path>
            <path d="M55.300341,12.9085106 C55.300341,14.6483323 55.629456,15.823743 56.6638175,15.823743 C57.6981789,15.823743 58.027294,14.6483323 58.027294,12.9085106 C58.027294,11.1691164 57.6981789,9.96998371 56.6638175,9.96998371 C55.629456,9.96998371 55.300341,11.1691164 55.300341,12.9085106 L55.300341,12.9085106 Z M57.3455557,23.2993555 C59.3202458,23.2993555 60.8952962,23.0172569 60.8952962,22.3355187 C60.8952962,21.5127311 59.3202458,21.3716818 57.3455557,21.3716818 C55.3708656,21.3716818 53.7958152,21.5127311 53.7958152,22.3355187 C53.7958152,23.0172569 55.3708656,23.2993555 57.3455557,23.2993555 L57.3455557,23.2993555 Z M59.555328,18.409433 C61.5770345,18.409433 63.6692656,18.9033192 63.6692656,21.3481736 C63.6692656,24.2867005 60.4721484,24.8744059 56.8048668,24.8744059 C53.4196838,24.8744059 50.8807965,24.3102087 50.8807965,22.5706008 C50.8807965,21.4657147 51.9386662,20.9718285 52.8554866,20.8074847 L52.8554866,20.7604682 C51.9621744,20.4548614 51.0688622,19.6790903 51.0688622,18.6447289 C51.0688622,17.2340222 51.8446333,16.7405634 53.0905687,16.2468909 C51.9856826,15.4709061 51.4920101,14.36602 51.4920101,12.6734285 C51.4920101,9.85265634 54.2424713,8.53619628 56.7108339,8.53619628 C57.9802775,8.53619628 59.2027047,8.95934416 60.2840826,9.59385226 C61.0128373,8.95934416 61.8826413,8.53619628 62.8699863,8.53619628 C64.1629382,8.53619628 65.4323818,9.3354756 65.4323818,10.7459685 C65.4323818,11.8273464 64.7743655,12.43856 63.6929876,12.43856 C62.9170027,12.43856 62.399822,11.8508546 62.399822,11.0985918 C62.399822,10.581411 62.6821343,10.2287878 63.058052,9.92318099 C62.5408713,9.82914812 61.8356248,9.50003311 61.0363455,10.4168535 C61.4594934,11.1221 61.8591331,11.9919039 61.8591331,12.8381997 C61.8591331,15.9175622 59.3672622,17.2812524 56.4522435,17.2812524 C55.6529642,17.2812524 54.8066685,17.1872195 54.0544056,16.8816127 C53.8193234,16.9521374 53.5842413,17.2107277 53.5842413,17.563351 C53.5842413,18.1510563 54.4070288,18.409433 54.7831602,18.409433 L59.555328,18.409433 Z" id="Fill-9" fill="#FFFFFF"></path>
            <path d="M64.186254,8.88871266 L69.7341928,8.88871266 L69.7341928,10.7693699 L69.7812093,10.7693699 C70.2513736,9.64118926 71.1448995,8.53630314 72.5316705,8.53630314 C73.9893935,8.53630314 75.211607,9.66448376 75.211607,11.216026 C75.211607,12.2268792 74.4358359,13.3084708 73.3311635,13.3084708 C72.3436047,13.3084708 71.4502926,12.8380928 71.4502926,11.7569286 C71.4502926,10.9576493 71.8971624,10.4637631 72.6727198,10.3227138 C72.4376376,10.0876316 72.2262774,10.0641234 71.9204569,10.0641234 C70.6980297,10.0641234 69.8987503,11.6391738 69.8987503,12.7912901 L69.8987503,16.9990469 C69.8987503,17.657277 70.0633079,18.0101139 70.7450461,18.0101139 L71.7088829,18.0101139 L71.7088829,19.8905574 L64.186254,19.8905574 L64.186254,18.0101139 L65.1500909,18.0101139 C65.8318291,18.0101139 65.9963866,17.657277 65.9963866,16.9990469 L65.9963866,11.7802231 C65.9963866,11.1219931 65.8318291,10.7693699 65.1500909,10.7693699 L64.186254,10.7693699 L64.186254,8.88871266 Z" id="Fill-11" fill="#FFFFFF"></path>
            <path d="M81.3001493,14.4602238 C80.1719687,15.1184538 78.2678032,15.2595031 78.2678032,16.7170125 C78.2678032,17.6808493 78.8790168,18.0334725 79.6075578,18.0334725 C80.9477398,18.0334725 81.3001493,17.0463412 81.3001493,16.0585687 L81.3001493,14.4602238 Z M87.7178921,15.8709304 L87.7178921,17.1634548 C87.7178921,19.5144901 86.8247936,20.2434585 84.2153817,20.2434585 C83.0869874,20.2434585 81.9821012,19.7025558 81.6059698,18.5741615 C80.642133,19.7262777 79.5137386,20.2434585 77.9854909,20.2434585 C75.7524242,20.2434585 74.3652258,19.3734408 74.3652258,16.9758165 C74.3652258,12.5323364 81.3473794,15.141962 81.3473794,12.0623858 C81.3473794,10.5110573 80.3600344,9.9938766 79.0668688,9.9938766 C78.4323607,9.9938766 77.773917,10.0876958 77.2097198,10.440319 L77.2097198,10.4873354 C77.91518,10.581582 78.6909511,10.9574997 78.6909511,11.7802873 C78.6909511,12.8146487 77.773917,13.2613048 76.8338021,13.2613048 C75.7287023,13.2613048 74.7883736,12.626583 74.7883736,11.5216969 C74.7883736,8.91228499 78.3383279,8.53615354 80.2422796,8.53615354 C83.4631188,8.53615354 85.2029404,9.28841643 85.2029404,12.7206159 L85.2029404,17.0931439 C85.2029404,17.7750959 85.2734651,18.0334725 85.6493828,18.0334725 C86.1665636,18.0334725 86.4247265,17.7278657 86.4247265,16.4114057 L86.4247265,15.8709304 L87.7178921,15.8709304 Z" id="Fill-13" fill="#FFFFFF"></path>
            <path d="M94.2054542,14.2955594 C94.2054542,11.991968 93.664979,10.5577532 92.3483052,10.5577532 C91.0318452,10.5577532 90.4909425,11.991968 90.4909425,14.2955594 C90.4909425,16.5995782 91.0318452,18.0570876 92.3483052,18.0570876 C93.664979,18.0570876 94.2054542,16.5995782 94.2054542,14.2955594 L94.2054542,14.2955594 Z M94.39352,18.174415 L94.3462898,18.174415 C93.664979,19.6084161 92.4423381,20.2433516 90.9375986,20.2433516 C87.3880718,20.2433516 86.3302021,17.2575946 86.3302021,14.3895923 C86.3302021,11.5218037 87.3880718,8.5362604 90.9375986,8.5362604 C92.3483052,8.5362604 93.664979,9.07673564 94.1584378,10.1110971 L94.2054542,10.0640807 L94.2054542,6.79643875 C94.2054542,6.13820873 94.0408967,5.7855855 93.3589448,5.7855855 L92.3953217,5.7855855 L92.3953217,3.90514198 L98.107818,3.90514198 L98.107818,16.9990042 C98.107818,17.6572342 98.2723755,18.0100712 98.9543274,18.0100712 L99.8709341,18.0100712 L99.8709341,19.8907284 L94.39352,19.8907284 L94.39352,18.174415 Z" id="Fill-15" fill="#FFFFFF"></path>
            <path d="M107.064234,19.8906429 L107.064234,18.0805103 L107.017218,18.0805103 C105.982856,19.5850361 104.878184,20.2432661 102.974019,20.2432661 C100.293868,20.2432661 99.4007698,19.0913636 99.4007698,16.5524763 L99.4007698,11.7803086 C99.4007698,11.1220786 99.2359986,10.7692417 98.5544741,10.7692417 L97.7784892,10.7692417 L97.7784892,8.88879814 L103.303134,8.88879814 L103.303134,15.8237217 C103.303134,17.4928049 103.303134,18.1275268 105.113052,18.1275268 C106.194858,18.1275268 106.876169,17.1168872 106.876169,16.1291147 L106.876169,11.7803086 C106.876169,11.1220786 106.711825,10.7692417 106.030087,10.7692417 L104.995511,10.7692417 L104.995511,8.88879814 L110.77896,8.88879814 L110.77896,16.9991324 C110.77896,17.6573624 110.943304,18.0099857 111.625042,18.0099857 L112.471551,18.0099857 L112.471551,19.8906429 L107.064234,19.8906429 Z" id="Fill-17" fill="#FFFFFF"></path>
            <path d="M118.818128,14.4602238 C117.689948,15.1184538 115.785782,15.2595031 115.785782,16.7170125 C115.785782,17.6808493 116.396996,18.0334725 117.125323,18.0334725 C118.465505,18.0334725 118.818128,17.0463412 118.818128,16.0585687 L118.818128,14.4602238 Z M125.235657,15.8709304 L125.235657,17.1634548 C125.235657,19.5144901 124.342559,20.2434585 121.733361,20.2434585 C120.604539,20.2434585 119.499653,19.7025558 119.123735,18.5741615 C118.160112,19.7262777 117.031718,20.2434585 115.50347,20.2434585 C113.269976,20.2434585 111.883418,19.3734408 111.883418,16.9758165 C111.883418,12.5323364 118.865358,15.141962 118.865358,12.0623858 C118.865358,10.5110573 117.8778,9.9938766 116.585061,9.9938766 C115.949912,9.9938766 115.291896,10.0876958 114.727485,10.440319 L114.727485,10.4873354 C115.432732,10.581582 116.208503,10.9574997 116.208503,11.7802873 C116.208503,12.8146487 115.291896,13.2613048 114.351567,13.2613048 C113.246681,13.2613048 112.306139,12.626583 112.306139,11.5216969 C112.306139,8.91228499 115.856307,8.53615354 117.760472,8.53615354 C120.98067,8.53615354 122.720492,9.28841643 122.720492,12.7206159 L122.720492,17.0931439 C122.720492,17.7750959 122.791017,18.0334725 123.167148,18.0334725 C123.684329,18.0334725 124.038234,17.701793 124.038234,16.3853329 L124.038234,15.8448577 L125.235657,15.8709304 Z" id="Fill-19" fill="#FFFFFF"></path>
            <path d="M127.941325,4.51618461 L127.941325,8.88871266 L130.832621,8.88871266 L130.832621,10.7693699 L127.941325,10.7693699 L127.941325,17.2341291 C127.941325,17.7278016 128.199701,18.1274413 128.74039,18.1274413 C129.633916,18.1274413 129.868998,17.4929332 129.868998,16.4113416 L129.868998,14.5777008 L131.749442,14.5777008 L131.749442,16.6699319 C131.749442,18.973737 130.621047,20.2433944 127.800275,20.2433944 C125.378929,20.2433944 124.038747,19.0677699 124.038747,16.6699319 L124.038747,10.7693699 L122.463697,10.7693699 L122.463697,8.88871266 C124.814518,8.88871266 125.425946,6.46736648 125.613798,4.51618461 L127.941325,4.51618461 Z" id="Fill-21" fill="#FFFFFF"></path>
            <path d="M137.627628,13.0496027 L137.627628,12.4386028 C137.627628,11.2394701 136.992693,10.4168962 135.864512,10.4168962 C134.712396,10.4168962 134.078102,11.2394701 134.078102,12.4386028 L134.078102,13.0496027 L137.627628,13.0496027 Z M134.030871,14.9304736 C134.030871,16.5758349 134.407003,18.2216237 136.381693,18.2216237 C137.20448,18.2216237 138.544449,17.5866882 138.756236,16.1997035 L141.482976,16.1997035 C141.107058,19.020903 138.356383,20.2433302 135.817282,20.2433302 C131.797591,20.2433302 129.869704,18.0100498 129.869704,14.3897846 C129.869704,10.7460113 132.456035,8.53623903 135.817282,8.53623903 C139.649549,8.53623903 141.788582,11.263192 141.788582,14.9304736 L134.030871,14.9304736 Z" id="Fill-23" fill="#FFFFFF"></path>
            <g id="Group-27" transform="translate(140.194448, 0.101299)">
                <mask id="mask-2" fill="white">
                    <use xlink:href="#path-1"></use>
                </mask>
                <g id="Clip-26"></g>
                <polygon id="Fill-25" fill="#718079" mask="url(#mask-2)" points="0.1216657 39.5365439 0.1216657 37.4639742 7.04526253 37.4639742 7.04526253 2.18498176 0.1216657 2.18498176 0.1216657 0.112412011 10.5308897 0.112412011 10.5308897 39.5365439"></polygon>
            </g>
            <polygon id="Fill-28" fill="#718079" points="10.409224 33.4402225 10.409224 31.3676528 3.4856272 31.3676528 3.4856272 2.28628079 10.409224 2.28628079 10.409224 0.213711048 0 0.213711048 0 33.4402225"></polygon>
            <path d="M93.5626541,28.230396 C93.8191074,29.8546 95.1182569,30.9148205 96.7428882,30.9148205 C97.7684876,30.9148205 98.5209642,30.4017002 98.5209642,29.5810498 C98.5209642,27.3755518 92.7764112,29.0681433 92.7764112,25.5632821 C92.7764112,23.8535937 94.3322276,23.2036984 95.8198702,23.2036984 C96.7772957,23.2036984 97.7516044,23.5456361 98.4696735,24.1782208 L98.7772037,23.3746673 L99.5465635,23.3746673 L99.5465635,26.5207076 L98.7430099,26.5207076 C98.5551579,25.0159681 97.2557948,24.007252 95.854064,24.007252 C95.1013737,24.007252 94.2292189,24.2637052 94.2292189,25.3752164 C94.2292189,27.4097456 99.9739856,25.8879092 99.9739856,29.2391121 C99.9739856,31.0342849 98.3668785,31.7181603 96.7941789,31.7181603 C95.7339584,31.7181603 94.6739516,31.3933195 93.8877086,30.6579398 L93.5626541,31.5474052 L92.6736162,31.5474052 L92.6736162,28.230396 L93.5626541,28.230396 Z" id="Fill-30" fill="#E87A24"></path>
            <path d="M106.470887,26.7598716 C106.470887,25.2726565 105.803895,24.0072733 104.248292,24.0072733 C102.658496,24.0072733 101.922902,25.2726565 101.922902,26.7598716 L106.470887,26.7598716 Z M101.922902,27.5636389 C101.922902,29.307521 102.299034,30.9146281 104.316893,30.9146281 C105.684644,30.9146281 106.522178,30.196559 106.881426,28.8630021 L107.873045,28.8630021 C107.496914,30.7092518 106.316801,31.7181817 104.299583,31.7181817 C101.769244,31.7181817 100.298912,30.2647328 100.298912,27.4610576 C100.298912,24.6569549 101.769244,23.2035061 104.299583,23.2035061 C107.052395,23.2035061 107.941433,25.1356677 108.095091,27.5636389 L101.922902,27.5636389 Z" id="Fill-32" fill="#E87A24"></path>
            <path d="M113.959749,27.1019375 C113.224156,27.5293596 112.437913,27.7003285 111.428983,28.1277506 C110.505538,28.5209789 110.12962,28.8968966 110.12962,29.4955013 C110.12962,30.3845392 110.608119,30.9147564 111.48006,30.9147564 C112.608882,30.9147564 113.959749,29.8545358 113.959749,28.6748509 L113.959749,27.1019375 Z M115.412557,30.0086215 C115.412557,30.521528 115.788689,30.6580894 116.096219,30.6580894 C116.831599,30.6580894 116.811937,31.2953757 116.811937,30.7995661 L117.11904,30.7728522 L117.448155,30.8707319 L118.988798,29.8378664 C118.988798,31.6501361 116.96239,31.4674131 115.66324,31.4674131 C114.808396,31.4674131 114.181582,31.2051897 114.044593,30.3845392 C113.207273,31.3079847 112.24942,31.7183099 111.018444,31.7183099 C109.63381,31.7183099 108.50563,31.1028221 108.50563,29.5811994 C108.50563,27.3583908 111.583069,27.3925846 113.30964,26.5721479 C113.839644,26.3152672 113.959749,25.9906401 113.959749,25.4775199 C113.959749,24.5032112 113.532327,24.0074016 112.044471,24.0074016 C111.377479,24.0074016 110.539732,24.1097692 110.044349,24.67418 C110.557042,24.7596645 110.830592,25.0330009 110.830592,25.5461211 C110.830592,26.2128996 110.283492,26.452256 109.804779,26.452256 C109.206388,26.452256 108.915528,25.9220388 108.915528,25.2383772 C108.915528,23.7849284 110.865,23.2036343 112.164577,23.2036343 C114.130291,23.2036343 115.412557,23.7849284 115.412557,26.007737 L115.412557,30.0086215 Z" id="Fill-34" fill="#E87A24"></path>
            <path d="M119.276432,25.1870865 L119.310625,25.1870865 C119.738047,24.0071879 120.746977,23.2036343 121.738383,23.2036343 C122.901185,23.2036343 123.670544,23.8364327 123.670544,25.015904 C123.670544,25.6657993 123.396994,26.1616089 122.712905,26.1616089 C122.251289,26.1616089 121.75548,25.8707482 121.75548,25.3751523 C121.75548,24.7596645 122.165805,24.4861143 122.781506,24.4861143 C122.695808,24.0926723 122.165805,24.0071879 121.789673,24.0071879 C120.182566,24.0071879 119.344819,25.8707482 119.344819,27.5635534 L119.344819,29.8716327 C119.344819,30.4016361 119.652563,30.6580894 120.199663,30.6580894 L121.123109,30.6580894 L121.123109,31.4616429 L116.096197,31.4616429 L116.096197,30.6580894 L117.207709,30.6580894 C117.771692,30.6580894 117.891584,30.4016361 117.891584,29.8716327 L117.891584,25.0500978 C117.891584,24.5200944 117.771692,24.2638548 117.207709,24.2638548 L116.02781,24.2638548 L116.02781,23.4603013 L119.276432,23.4603013 L119.276432,25.1870865 Z" id="Fill-36" fill="#E87A24"></path>
            <path d="M131.41539,28.5208934 C131.17582,30.8291864 129.756565,31.7182244 127.517301,31.7182244 C125.39686,31.7182244 123.755559,30.2989693 123.755559,27.4611003 C123.755559,24.9305478 125.568042,23.2035488 127.995586,23.2035488 C129.517422,23.2035488 131.466681,23.9902192 131.466681,25.7682951 C131.466681,26.4692674 131.055928,26.9481938 130.389363,26.9481938 C129.961941,26.9481938 129.551616,26.5891593 129.551616,26.1446403 C129.551616,25.5631325 129.842263,25.2556023 130.423557,25.1699042 C130.150221,24.3321569 129.021613,24.0073161 128.252253,24.0073161 C126.080949,24.0073161 125.379976,25.8879733 125.379976,27.4611003 C125.379976,29.0337999 126.080949,30.9146709 127.927626,30.9146709 C129.295376,30.9146709 130.150221,29.9743423 130.423557,28.5208934 L131.41539,28.5208934 Z" id="Fill-38" fill="#E87A24"></path>
            <path d="M134.20199,24.8281161 L134.236184,24.8281161 C134.902748,23.8362831 135.928775,23.2034847 137.245235,23.2034847 C139.040622,23.2034847 139.998047,24.3835971 139.998047,26.1614593 L139.998047,29.8716968 C139.998047,30.4017002 140.117512,30.6579398 140.681709,30.6579398 L141.707736,30.6579398 L141.707736,31.461707 L136.920608,31.461707 L136.920608,30.6579398 L137.860937,30.6579398 C138.42492,30.6579398 138.544598,30.4017002 138.544598,29.8716968 L138.544598,26.0419949 C138.544598,24.8620962 138.100079,24.1611239 136.783619,24.1611239 C135.159415,24.1611239 134.20199,25.4604871 134.20199,26.8282378 L134.20199,29.8716968 C134.20199,30.4017002 134.322095,30.6579398 134.885651,30.6579398 L135.928775,30.6579398 L135.928775,31.461707 L130.953368,31.461707 L130.953368,30.6579398 L132.064879,30.6579398 C132.62929,30.6579398 132.748541,30.4017002 132.748541,29.8716968 L132.748541,21.7162695 C132.748541,21.1862661 132.62929,20.9298129 132.064879,20.9298129 L130.953368,20.9298129 L130.953368,20.1262593 L134.20199,20.1262593 L134.20199,24.8281161 Z" id="Fill-40" fill="#E87A24"></path>
        </g>
    </g>
</svg>